<svg width="559" height="533" xmlns="http://www.w3.org/2000/svg" xmlns:xlink="http://www.w3.org/1999/xlink" xml:space="preserve" overflow="hidden"><g transform="translate(-464 -969)"><path d="M464.5 1237.5 592.783 1237.5" stroke="#7F7F7F" stroke-width="20.625" stroke-miterlimit="8" fill="none" fill-rule="evenodd"/><path d="M865.5 1237.5 993.784 1237.5" stroke="#7F7F7F" stroke-width="20.625" stroke-miterlimit="8" fill="none" fill-rule="evenodd"/><path d="M729.048 1369C656.701 1369.58 597.583 1311.17 597.004 1238.55 596.425 1165.93 654.605 1106.58 726.952 1106 727.301 1106 727.651 1106 728 1106" stroke="#D85727" stroke-width="27.5" stroke-miterlimit="8" fill="none" fill-rule="evenodd"/><path d="M726.952 1106C799.299 1105.42 858.417 1163.83 858.996 1236.45 859.575 1309.07 801.395 1368.42 729.048 1369 728.699 1369 728.349 1369 728 1369" stroke="#27A8D8" stroke-width="27.5" stroke-miterlimit="8" fill="none" fill-rule="evenodd"/><path d="M6.58947-7.93263 97.9509 67.9594 84.7719 83.8247-6.58947 7.93263ZM103.197 45.5047 131.025 108.839 63.6604 93.1004Z" fill="#27A8D8" transform="matrix(1 0 0 -1 828.5 1141.34)"/><path d="M0 0 0.000360892 147.124" stroke="#D85727" stroke-width="20.625" stroke-miterlimit="8" fill="none" fill-rule="evenodd" transform="matrix(1 0 0 -1 729.5 1501.62)"/><path d="M695.5 1468.5 761.958 1468.5" stroke="#D85727" stroke-width="20.625" stroke-miterlimit="8" fill="none" fill-rule="evenodd"/></g></svg>